<svg width="430" height="430" viewBox="0 0 430 430" fill="none" xmlns="http://www.w3.org/2000/svg">
<path d="M215 428C332.637 428 428 332.637 428 215C428 97.3633 332.637 2 215 2C97.3633 2 2 97.3633 2 215C2 332.637 97.3633 428 215 428Z" stroke="#DBDBDB" stroke-width="2.47628" stroke-miterlimit="10"/>
<path d="M214.999 386.784C309.872 386.784 386.782 309.874 386.782 215.001C386.782 120.128 309.872 43.2175 214.999 43.2175C120.126 43.2175 43.2158 120.128 43.2158 215.001C43.2158 309.874 120.126 386.784 214.999 386.784Z" stroke="#DBDBDB" stroke-width="2.47628" stroke-miterlimit="10"/>
<path d="M214.999 344.295C286.408 344.295 344.296 286.407 344.296 214.999C344.296 143.591 286.408 85.7026 214.999 85.7026C143.591 85.7026 85.7031 143.591 85.7031 214.999C85.7031 286.407 143.591 344.295 214.999 344.295Z" stroke="#DBDBDB" stroke-width="2.47628" stroke-miterlimit="10"/>
<path d="M215 306.679C265.633 306.679 306.679 265.633 306.679 215C306.679 164.367 265.633 123.321 215 123.321C164.367 123.321 123.321 164.367 123.321 215C123.321 265.633 164.367 306.679 215 306.679Z" stroke="#DBDBDB" stroke-width="2.47628" stroke-miterlimit="10"/>
<path d="M215.001 260.591C240.181 260.591 260.593 240.179 260.593 214.999C260.593 189.819 240.181 169.406 215.001 169.406C189.821 169.406 169.408 189.819 169.408 214.999C169.408 240.179 189.821 260.591 215.001 260.591Z" stroke="#DBDBDB" stroke-width="2.47628" stroke-miterlimit="10"/>
</svg>
