<svg width="621" height="520" viewBox="0 0 621 520" fill="none" xmlns="http://www.w3.org/2000/svg">
<g style="mix-blend-mode:darken" opacity="0.35">
<mask id="mask0_3348_16096" style="mask-type:alpha" maskUnits="userSpaceOnUse" x="0" y="0" width="621" height="520">
<rect width="620.878" height="519.43" fill="black"/>
</mask>
<g mask="url(#mask0_3348_16096)">
<path d="M542.194 478.114C638.099 406.945 658.173 271.533 587.03 175.663C515.888 79.7923 380.468 59.7682 284.563 130.937C188.657 202.106 168.583 337.519 239.726 433.389C310.869 529.259 446.288 549.283 542.194 478.114Z" fill="white" stroke="#F93C22" stroke-width="2.57143" stroke-miterlimit="10"/>
<path d="M517.265 444.522C594.612 387.125 610.802 277.915 553.426 200.597C496.05 123.278 386.834 107.129 309.487 164.526C232.14 221.924 215.95 331.133 273.327 408.451C330.703 485.77 439.918 501.92 517.265 444.522Z" fill="white" stroke="#F93C22" stroke-width="2.57143" stroke-miterlimit="10"/>
<path d="M491.569 409.898C549.786 366.696 561.972 284.498 518.786 226.302C475.601 168.107 393.398 155.952 335.181 199.153C276.964 242.354 264.778 324.553 307.964 382.748C351.149 440.944 433.352 453.099 491.569 409.898Z" fill="white" stroke="#F93C22" stroke-width="2.57143" stroke-miterlimit="10"/>
<path d="M468.819 379.242C510.099 348.61 518.739 290.326 488.118 249.062C457.497 207.798 399.21 199.179 357.931 229.811C316.651 260.444 308.011 318.727 338.632 359.992C369.253 401.256 427.54 409.875 468.819 379.242Z" fill="white" stroke="#F93C22" stroke-width="2.57143" stroke-miterlimit="10"/>
<path d="M440.949 341.681C461.477 326.448 465.774 297.463 450.546 276.942C435.318 256.421 406.331 252.135 385.803 267.369C365.274 282.602 360.978 311.587 376.206 332.108C391.434 352.629 420.42 356.915 440.949 341.681Z" fill="white" stroke="#F93C22" stroke-width="2.57143" stroke-miterlimit="10"/>
<path d="M774.385 432.105C870.291 360.935 890.365 225.523 819.222 129.653C748.079 33.7831 612.66 13.759 516.754 84.9281C420.848 156.097 400.774 291.509 471.917 387.379C543.06 483.25 678.479 503.274 774.385 432.105Z" fill="white" stroke="#F93C22" stroke-width="2.57143" stroke-miterlimit="10"/>
<path d="M749.457 398.515C826.804 341.118 842.994 231.908 785.617 154.59C728.241 77.2709 619.026 61.1215 541.679 118.519C464.331 175.917 448.142 285.126 505.518 362.444C562.894 439.763 672.109 455.913 749.457 398.515Z" fill="white" stroke="#F93C22" stroke-width="2.57143" stroke-miterlimit="10"/>
<path d="M723.764 363.888C781.981 320.687 794.167 238.488 750.982 180.293C707.796 122.097 625.593 109.942 567.376 153.144C509.159 196.345 496.974 278.543 540.159 336.739C583.344 394.935 665.547 407.09 723.764 363.888Z" fill="white" stroke="#F93C22" stroke-width="2.57143" stroke-miterlimit="10"/>
<path d="M701.015 333.233C742.294 302.601 750.934 244.317 720.313 203.053C689.692 161.788 631.405 153.17 590.126 183.802C548.846 214.435 540.206 272.718 570.827 313.982C601.448 355.247 659.735 363.865 701.015 333.233Z" fill="white" stroke="#F93C22" stroke-width="2.57143" stroke-miterlimit="10"/>
<path d="M673.14 295.675C693.669 280.441 697.965 251.456 682.737 230.935C667.509 210.414 638.523 206.128 617.994 221.362C597.466 236.595 593.169 265.58 608.397 286.101C623.625 306.622 652.612 310.908 673.14 295.675Z" fill="white" stroke="#F93C22" stroke-width="2.57143" stroke-miterlimit="10"/>
<path d="M429.725 687.866C525.63 616.697 545.705 481.285 474.562 385.415C403.419 289.545 267.999 269.52 172.094 340.69C76.1882 411.859 56.1141 547.271 127.257 643.141C198.4 739.011 333.819 759.035 429.725 687.866Z" fill="white" stroke="#F93C22" stroke-width="2.57143" stroke-miterlimit="10"/>
<path d="M404.796 654.274C482.144 596.876 498.333 487.667 440.957 410.349C383.581 333.03 274.366 316.881 197.018 374.278C119.671 431.676 103.481 540.885 160.858 618.203C218.234 695.522 327.449 711.671 404.796 654.274Z" fill="white" stroke="#F93C22" stroke-width="2.57143" stroke-miterlimit="10"/>
<path d="M379.104 619.65C437.321 576.449 449.507 494.25 406.321 436.055C363.136 377.859 280.933 365.704 222.716 408.905C164.499 452.107 152.313 534.305 195.499 592.501C238.684 650.696 320.887 662.851 379.104 619.65Z" fill="white" stroke="#F93C22" stroke-width="2.57143" stroke-miterlimit="10"/>
<path d="M356.355 588.995C397.634 558.362 406.274 500.078 375.653 458.814C345.032 417.55 286.745 408.931 245.466 439.564C204.186 470.196 195.546 528.48 226.167 569.744C256.788 611.008 315.075 619.627 356.355 588.995Z" fill="white" stroke="#F93C22" stroke-width="2.57143" stroke-miterlimit="10"/>
<path d="M328.48 551.434C349.008 536.2 353.305 507.215 338.077 486.694C322.849 466.173 293.863 461.887 273.334 477.121C252.806 492.354 248.509 521.339 263.737 541.86C278.965 562.381 307.951 566.667 328.48 551.434Z" fill="white" stroke="#F93C22" stroke-width="2.57143" stroke-miterlimit="10"/>
<path d="M674.085 657.534C770.435 586.035 790.603 449.994 719.13 353.679C647.657 257.365 511.609 237.248 415.259 308.747C318.908 380.246 298.741 516.286 370.214 612.601C441.687 708.916 577.734 729.033 674.085 657.534Z" fill="white" stroke="#F93C22" stroke-width="2.57143" stroke-miterlimit="10"/>
<path d="M649.032 623.772C726.729 566.115 742.992 456.412 685.357 378.744C627.721 301.076 518.012 284.853 440.315 342.51C362.619 400.167 346.356 509.87 403.991 587.538C461.627 665.206 571.336 681.428 649.032 623.772Z" fill="white" stroke="#F93C22" stroke-width="2.57143" stroke-miterlimit="10"/>
<path d="M623.25 589.03C681.753 545.616 693.998 463.014 650.601 404.533C607.203 346.051 524.596 333.836 466.093 377.25C407.59 420.664 395.345 503.266 438.742 561.747C482.14 620.229 564.747 632.444 623.25 589.03Z" fill="white" stroke="#F93C22" stroke-width="2.57143" stroke-miterlimit="10"/>
<path d="M600.372 558.201C641.842 527.427 650.522 468.874 619.76 427.42C588.997 385.965 530.441 377.306 488.971 408.08C447.501 438.854 438.821 497.407 469.583 538.862C500.346 580.317 558.902 588.975 600.372 558.201Z" fill="white" stroke="#F93C22" stroke-width="2.57143" stroke-miterlimit="10"/>
<path d="M572.373 520.469C592.997 505.164 597.314 476.045 582.015 455.429C566.717 434.812 537.596 430.506 516.972 445.811C496.348 461.115 492.031 490.235 507.33 510.851C522.629 531.467 551.75 535.773 572.373 520.469Z" fill="white" stroke="#F93C22" stroke-width="2.57143" stroke-miterlimit="10"/>
</g>
</g>
</svg>
