<svg width="1320" height="411" viewBox="0 0 1320 411" fill="none" xmlns="http://www.w3.org/2000/svg">
<g style="mix-blend-mode:lighten" opacity="0.2">
<mask id="mask0_3547_6153" style="mask-type:alpha" maskUnits="userSpaceOnUse" x="0" y="0" width="1320" height="411">
<g style="mix-blend-mode:lighten">
<rect width="1320" height="410.109" fill="black"/>
</g>
</mask>
<g mask="url(#mask0_3547_6153)">
<path d="M508.294 570.966C593.611 570.966 662.775 501.77 662.775 416.411C662.775 331.052 593.611 261.855 508.294 261.855C422.976 261.855 353.812 331.052 353.812 416.411C353.812 501.77 422.976 570.966 508.294 570.966Z" fill="white" stroke="#002323" stroke-miterlimit="10"/>
<path d="M508.293 541.043C577.093 541.043 632.866 485.242 632.866 416.409C632.866 347.576 577.093 291.776 508.293 291.776C439.493 291.776 383.72 347.576 383.72 416.409C383.72 485.242 439.493 541.043 508.293 541.043Z" fill="white" stroke="#002323" stroke-miterlimit="10"/>
<path d="M508.294 510.255C560.098 510.255 602.093 468.239 602.093 416.41C602.093 364.581 560.098 322.566 508.294 322.566C456.49 322.566 414.494 364.581 414.494 416.41C414.494 468.239 456.49 510.255 508.294 510.255Z" fill="white" stroke="#002323" stroke-miterlimit="10"/>
<path d="M508.294 482.932C545.015 482.932 574.784 453.149 574.784 416.41C574.784 379.671 545.015 349.888 508.294 349.888C471.572 349.888 441.804 379.671 441.804 416.41C441.804 453.149 471.572 482.932 508.294 482.932Z" fill="white" stroke="#002323" stroke-miterlimit="10"/>
<path d="M508.294 449.494C526.556 449.494 541.36 434.682 541.36 416.411C541.36 398.14 526.556 383.328 508.294 383.328C490.031 383.328 475.227 398.14 475.227 416.411C475.227 434.682 490.031 449.494 508.294 449.494Z" fill="white" stroke="#002323" stroke-miterlimit="10"/>
<path d="M660.788 349.532C745.712 349.532 814.556 280.654 814.556 195.69C814.556 110.725 745.712 41.848 660.788 41.848C575.864 41.848 507.02 110.725 507.02 195.69C507.02 280.654 575.864 349.532 660.788 349.532Z" fill="black" stroke="white" stroke-width="0.5" stroke-miterlimit="10"/>
<path d="M660.788 319.762C729.279 319.762 784.801 264.213 784.801 195.689C784.801 127.166 729.279 71.6166 660.788 71.6166C592.298 71.6166 536.775 127.166 536.775 195.689C536.775 264.213 592.298 319.762 660.788 319.762Z" fill="black" stroke="white" stroke-width="0.5" stroke-miterlimit="10"/>
<path d="M660.788 289.076C712.338 289.076 754.128 247.265 754.128 195.69C754.128 144.114 712.338 102.304 660.788 102.304C609.237 102.304 567.447 144.114 567.447 195.69C567.447 247.265 609.237 289.076 660.788 289.076Z" fill="black" stroke="white" stroke-width="0.5" stroke-miterlimit="10"/>
<path d="M660.788 261.906C697.34 261.906 726.972 232.26 726.972 195.69C726.972 159.119 697.34 129.473 660.788 129.473C624.235 129.473 594.603 159.119 594.603 195.69C594.603 232.26 624.235 261.906 660.788 261.906Z" fill="black" stroke="white" stroke-width="0.5" stroke-miterlimit="10"/>
<path d="M660.788 228.62C678.966 228.62 693.702 213.877 693.702 195.69C693.702 177.504 678.966 162.76 660.788 162.76C642.61 162.76 627.874 177.504 627.874 195.69C627.874 213.877 642.61 228.62 660.788 228.62Z" fill="black" stroke="white" stroke-width="0.5" stroke-miterlimit="10"/>
<path d="M812.874 421.712C897.798 421.712 966.642 352.834 966.642 267.87C966.642 182.905 897.798 114.028 812.874 114.028C727.951 114.028 659.106 182.905 659.106 267.87C659.106 352.834 727.951 421.712 812.874 421.712Z" fill="black" stroke="white" stroke-width="0.5" stroke-miterlimit="10"/>
<path d="M812.874 391.942C881.365 391.942 936.887 336.393 936.887 267.869C936.887 199.346 881.365 143.797 812.874 143.797C744.384 143.797 688.861 199.346 688.861 267.869C688.861 336.393 744.384 391.942 812.874 391.942Z" fill="black" stroke="white" stroke-width="0.5" stroke-miterlimit="10"/>
<path d="M812.874 361.257C864.425 361.257 906.215 319.446 906.215 267.871C906.215 216.295 864.425 174.485 812.874 174.485C761.323 174.485 719.533 216.295 719.533 267.871C719.533 319.446 761.323 361.257 812.874 361.257Z" fill="black" stroke="white" stroke-width="0.5" stroke-miterlimit="10"/>
<path d="M812.874 334.087C849.427 334.087 879.059 304.441 879.059 267.871C879.059 231.301 849.427 201.655 812.874 201.655C776.322 201.655 746.69 231.301 746.69 267.871C746.69 304.441 776.322 334.087 812.874 334.087Z" fill="black" stroke="white" stroke-width="0.5" stroke-miterlimit="10"/>
<path d="M812.874 300.8C831.052 300.8 845.788 286.057 845.788 267.87C845.788 249.684 831.052 234.94 812.874 234.94C794.696 234.94 779.96 249.684 779.96 267.87C779.96 286.057 794.696 300.8 812.874 300.8Z" fill="black" stroke="white" stroke-width="0.5" stroke-miterlimit="10"/>
<path d="M507.682 421.712C592.606 421.712 661.45 352.834 661.45 267.87C661.45 182.905 592.606 114.028 507.682 114.028C422.759 114.028 353.915 182.905 353.915 267.87C353.915 352.834 422.759 421.712 507.682 421.712Z" fill="black" stroke="white" stroke-width="0.5" stroke-miterlimit="10"/>
<path d="M507.682 391.942C576.173 391.942 631.695 336.393 631.695 267.869C631.695 199.346 576.173 143.797 507.682 143.797C439.192 143.797 383.669 199.346 383.669 267.869C383.669 336.393 439.192 391.942 507.682 391.942Z" fill="black" stroke="white" stroke-width="0.5" stroke-miterlimit="10"/>
<path d="M507.682 361.257C559.233 361.257 601.023 319.446 601.023 267.871C601.023 216.295 559.233 174.485 507.682 174.485C456.131 174.485 414.341 216.295 414.341 267.871C414.341 319.446 456.131 361.257 507.682 361.257Z" fill="black" stroke="white" stroke-width="0.5" stroke-miterlimit="10"/>
<path d="M507.682 334.087C544.235 334.087 573.867 304.441 573.867 267.871C573.867 231.301 544.235 201.655 507.682 201.655C471.13 201.655 441.498 231.301 441.498 267.871C441.498 304.441 471.13 334.087 507.682 334.087Z" fill="black" stroke="white" stroke-width="0.5" stroke-miterlimit="10"/>
<path d="M507.682 300.8C525.86 300.8 540.596 286.057 540.596 267.87C540.596 249.684 525.86 234.94 507.682 234.94C489.504 234.94 474.768 249.684 474.768 267.87C474.768 286.057 489.504 300.8 507.682 300.8Z" fill="black" stroke="white" stroke-width="0.5" stroke-miterlimit="10"/>
<path d="M660.075 508.012C745.392 508.012 814.556 438.815 814.556 353.456C814.556 268.098 745.392 198.901 660.075 198.901C574.757 198.901 505.594 268.098 505.594 353.456C505.594 438.815 574.757 508.012 660.075 508.012Z" fill="black" stroke="white" stroke-width="0.5" stroke-miterlimit="10"/>
<path d="M660.074 478.09C728.874 478.09 784.648 422.29 784.648 353.457C784.648 284.624 728.874 228.824 660.074 228.824C591.274 228.824 535.501 284.624 535.501 353.457C535.501 422.29 591.274 478.09 660.074 478.09Z" fill="black" stroke="white" stroke-width="0.5" stroke-miterlimit="10"/>
<path d="M660.075 447.301C711.879 447.301 753.874 405.286 753.874 353.457C753.874 301.628 711.879 259.612 660.075 259.612C608.271 259.612 566.275 301.628 566.275 353.457C566.275 405.286 608.271 447.301 660.075 447.301Z" fill="black" stroke="white" stroke-width="0.5" stroke-miterlimit="10"/>
<path d="M660.075 419.979C696.796 419.979 726.565 390.196 726.565 353.457C726.565 316.718 696.796 286.935 660.075 286.935C623.353 286.935 593.584 316.718 593.584 353.457C593.584 390.196 623.353 419.979 660.075 419.979Z" fill="black" stroke="white" stroke-width="0.5" stroke-miterlimit="10"/>
<path d="M660.074 386.539C678.336 386.539 693.141 371.727 693.141 353.456C693.141 335.185 678.336 320.374 660.074 320.374C641.812 320.374 627.007 335.185 627.007 353.456C627.007 371.727 641.812 386.539 660.074 386.539Z" fill="black" stroke="white" stroke-width="0.5" stroke-miterlimit="10"/>
<path d="M353.201 508.012C438.519 508.012 507.683 438.815 507.683 353.456C507.683 268.098 438.519 198.901 353.201 198.901C267.884 198.901 198.72 268.098 198.72 353.456C198.72 438.815 267.884 508.012 353.201 508.012Z" fill="black" stroke="white" stroke-width="0.5" stroke-miterlimit="10"/>
<path d="M353.201 478.09C422.001 478.09 477.774 422.29 477.774 353.457C477.774 284.624 422.001 228.824 353.201 228.824C284.401 228.824 228.628 284.624 228.628 353.457C228.628 422.29 284.401 478.09 353.201 478.09Z" fill="black" stroke="white" stroke-width="0.5" stroke-miterlimit="10"/>
<path d="M353.201 447.301C405.005 447.301 447.001 405.286 447.001 353.457C447.001 301.628 405.005 259.612 353.201 259.612C301.397 259.612 259.402 301.628 259.402 353.457C259.402 405.286 301.397 447.301 353.201 447.301Z" fill="black" stroke="white" stroke-width="0.5" stroke-miterlimit="10"/>
<path d="M353.201 419.979C389.922 419.979 419.691 390.196 419.691 353.457C419.691 316.718 389.922 286.935 353.201 286.935C316.48 286.935 286.711 316.718 286.711 353.457C286.711 390.196 316.48 419.979 353.201 419.979Z" fill="black" stroke="white" stroke-width="0.5" stroke-miterlimit="10"/>
<path d="M353.201 386.539C371.463 386.539 386.268 371.727 386.268 353.456C386.268 335.185 371.463 320.374 353.201 320.374C334.939 320.374 320.135 335.185 320.135 353.456C320.135 371.727 334.939 386.539 353.201 386.539Z" fill="black" stroke="white" stroke-width="0.5" stroke-miterlimit="10"/>
<path d="M198.72 581.67C284.037 581.67 353.201 512.473 353.201 427.115C353.201 341.756 284.037 272.559 198.72 272.559C113.402 272.559 44.2388 341.756 44.2388 427.115C44.2388 512.473 113.402 581.67 198.72 581.67Z" fill="black" stroke="white" stroke-width="0.5" stroke-miterlimit="10"/>
<path d="M198.72 551.748C267.52 551.748 323.293 495.947 323.293 427.114C323.293 358.281 267.52 302.481 198.72 302.481C129.92 302.481 74.1465 358.281 74.1465 427.114C74.1465 495.947 129.92 551.748 198.72 551.748Z" fill="black" stroke="white" stroke-width="0.5" stroke-miterlimit="10"/>
<path d="M198.72 520.96C250.524 520.96 292.519 478.944 292.519 427.115C292.519 375.286 250.524 333.271 198.72 333.271C146.916 333.271 104.92 375.286 104.92 427.115C104.92 478.944 146.916 520.96 198.72 520.96Z" fill="black" stroke="white" stroke-width="0.5" stroke-miterlimit="10"/>
<path d="M198.72 493.637C235.442 493.637 265.21 463.854 265.21 427.115C265.21 390.376 235.442 360.593 198.72 360.593C161.999 360.593 132.23 390.376 132.23 427.115C132.23 463.854 161.999 493.637 198.72 493.637Z" fill="black" stroke="white" stroke-width="0.5" stroke-miterlimit="10"/>
<path d="M198.72 460.198C216.982 460.198 231.786 445.387 231.786 427.116C231.786 408.845 216.982 394.033 198.72 394.033C180.457 394.033 165.653 408.845 165.653 427.116C165.653 445.387 180.457 460.198 198.72 460.198Z" fill="black" stroke="white" stroke-width="0.5" stroke-miterlimit="10"/>
<path d="M968.069 506.431C1052.99 506.431 1121.84 437.554 1121.84 352.589C1121.84 267.625 1052.99 198.748 968.069 198.748C883.145 198.748 814.301 267.625 814.301 352.589C814.301 437.554 883.145 506.431 968.069 506.431Z" fill="black" stroke="white" stroke-width="0.5" stroke-miterlimit="10"/>
<path d="M968.069 476.664C1036.56 476.664 1092.08 421.114 1092.08 352.591C1092.08 284.068 1036.56 228.518 968.069 228.518C899.579 228.518 844.056 284.068 844.056 352.591C844.056 421.114 899.579 476.664 968.069 476.664Z" fill="black" stroke="white" stroke-width="0.5" stroke-miterlimit="10"/>
<path d="M968.068 445.976C1019.62 445.976 1061.41 404.166 1061.41 352.591C1061.41 301.015 1019.62 259.205 968.068 259.205C916.518 259.205 874.728 301.015 874.728 352.591C874.728 404.166 916.518 445.976 968.068 445.976Z" fill="black" stroke="white" stroke-width="0.5" stroke-miterlimit="10"/>
<path d="M968.069 418.806C1004.62 418.806 1034.25 389.16 1034.25 352.59C1034.25 316.02 1004.62 286.374 968.069 286.374C931.517 286.374 901.885 316.02 901.885 352.59C901.885 389.16 931.517 418.806 968.069 418.806Z" fill="black" stroke="white" stroke-width="0.5" stroke-miterlimit="10"/>
<path d="M968.069 385.521C986.247 385.521 1000.98 370.777 1000.98 352.591C1000.98 334.404 986.247 319.661 968.069 319.661C949.891 319.661 935.155 334.404 935.155 352.591C935.155 370.777 949.891 385.521 968.069 385.521Z" fill="black" stroke="white" stroke-width="0.5" stroke-miterlimit="10"/>
<path d="M814.556 580.243C899.479 580.243 968.324 511.366 968.324 426.401C968.324 341.437 899.479 272.559 814.556 272.559C729.632 272.559 660.788 341.437 660.788 426.401C660.788 511.366 729.632 580.243 814.556 580.243Z" fill="black" stroke="white" stroke-width="0.5" stroke-miterlimit="10"/>
<path d="M814.556 550.474C883.046 550.474 938.568 494.925 938.568 426.402C938.568 357.878 883.046 302.329 814.556 302.329C746.065 302.329 690.543 357.878 690.543 426.402C690.543 494.925 746.065 550.474 814.556 550.474Z" fill="black" stroke="white" stroke-width="0.5" stroke-miterlimit="10"/>
<path d="M814.556 519.788C866.106 519.788 907.897 477.978 907.897 426.402C907.897 374.827 866.106 333.017 814.556 333.017C763.005 333.017 721.215 374.827 721.215 426.402C721.215 477.978 763.005 519.788 814.556 519.788Z" fill="black" stroke="white" stroke-width="0.5" stroke-miterlimit="10"/>
<path d="M814.555 492.618C851.108 492.618 880.74 462.972 880.74 426.402C880.74 389.832 851.108 360.186 814.555 360.186C778.003 360.186 748.371 389.832 748.371 426.402C748.371 462.972 778.003 492.618 814.555 492.618Z" fill="black" stroke="white" stroke-width="0.5" stroke-miterlimit="10"/>
<path d="M814.555 459.332C832.733 459.332 847.469 444.589 847.469 426.402C847.469 408.216 832.733 393.473 814.555 393.473C796.377 393.473 781.641 408.216 781.641 426.402C781.641 444.589 796.377 459.332 814.555 459.332Z" fill="black" stroke="white" stroke-width="0.5" stroke-miterlimit="10"/>
<path d="M506.969 580.243C591.892 580.243 660.737 511.366 660.737 426.401C660.737 341.437 591.892 272.559 506.969 272.559C422.045 272.559 353.201 341.437 353.201 426.401C353.201 511.366 422.045 580.243 506.969 580.243Z" fill="black" stroke="white" stroke-width="0.5" stroke-miterlimit="10"/>
<path d="M506.969 550.474C575.459 550.474 630.982 494.925 630.982 426.402C630.982 357.878 575.459 302.329 506.969 302.329C438.479 302.329 382.956 357.878 382.956 426.402C382.956 494.925 438.479 550.474 506.969 550.474Z" fill="black" stroke="white" stroke-width="0.5" stroke-miterlimit="10"/>
<path d="M506.969 519.788C558.52 519.788 600.31 477.978 600.31 426.402C600.31 374.827 558.52 333.017 506.969 333.017C455.419 333.017 413.628 374.827 413.628 426.402C413.628 477.978 455.419 519.788 506.969 519.788Z" fill="black" stroke="white" stroke-width="0.5" stroke-miterlimit="10"/>
<path d="M506.969 492.618C543.521 492.618 573.153 462.972 573.153 426.402C573.153 389.832 543.521 360.186 506.969 360.186C470.416 360.186 440.784 389.832 440.784 426.402C440.784 462.972 470.416 492.618 506.969 492.618Z" fill="black" stroke="white" stroke-width="0.5" stroke-miterlimit="10"/>
<path d="M506.969 459.332C525.147 459.332 539.883 444.589 539.883 426.402C539.883 408.216 525.147 393.473 506.969 393.473C488.791 393.473 474.055 408.216 474.055 426.402C474.055 444.589 488.791 459.332 506.969 459.332Z" fill="black" stroke="white" stroke-width="0.5" stroke-miterlimit="10"/>
<path d="M1121.84 580.243C1206.76 580.243 1275.6 511.366 1275.6 426.401C1275.6 341.437 1206.76 272.559 1121.84 272.559C1036.91 272.559 968.069 341.437 968.069 426.401C968.069 511.366 1036.91 580.243 1121.84 580.243Z" fill="black" stroke="white" stroke-width="0.5" stroke-miterlimit="10"/>
<path d="M1121.84 550.474C1190.33 550.474 1245.85 494.925 1245.85 426.402C1245.85 357.878 1190.33 302.329 1121.84 302.329C1053.35 302.329 997.824 357.878 997.824 426.402C997.824 494.925 1053.35 550.474 1121.84 550.474Z" fill="black" stroke="white" stroke-width="0.5" stroke-miterlimit="10"/>
<path d="M1121.84 519.788C1173.39 519.788 1215.18 477.978 1215.18 426.402C1215.18 374.827 1173.39 333.017 1121.84 333.017C1070.29 333.017 1028.5 374.827 1028.5 426.402C1028.5 477.978 1070.29 519.788 1121.84 519.788Z" fill="black" stroke="white" stroke-width="0.5" stroke-miterlimit="10"/>
<path d="M1121.84 492.618C1158.39 492.618 1188.02 462.972 1188.02 426.402C1188.02 389.832 1158.39 360.186 1121.84 360.186C1085.28 360.186 1055.65 389.832 1055.65 426.402C1055.65 462.972 1085.28 492.618 1121.84 492.618Z" fill="black" stroke="white" stroke-width="0.5" stroke-miterlimit="10"/>
<path d="M1121.84 459.332C1140.01 459.332 1154.75 444.589 1154.75 426.402C1154.75 408.216 1140.01 393.473 1121.84 393.473C1103.66 393.473 1088.92 408.216 1088.92 426.402C1088.92 444.589 1103.66 459.332 1121.84 459.332Z" fill="black" stroke="white" stroke-width="0.5" stroke-miterlimit="10"/>
<path d="M353.201 660.988C438.519 660.988 507.683 591.791 507.683 506.433C507.683 421.074 438.519 351.877 353.201 351.877C267.884 351.877 198.72 421.074 198.72 506.433C198.72 591.791 267.884 660.988 353.201 660.988Z" fill="black" stroke="white" stroke-width="0.5" stroke-miterlimit="10"/>
<path d="M353.201 631.065C422.001 631.065 477.774 575.265 477.774 506.432C477.774 437.599 422.001 381.799 353.201 381.799C284.401 381.799 228.628 437.599 228.628 506.432C228.628 575.265 284.401 631.065 353.201 631.065Z" fill="black" stroke="white" stroke-width="0.5" stroke-miterlimit="10"/>
<path d="M660.075 660.988C745.392 660.988 814.556 591.791 814.556 506.433C814.556 421.074 745.392 351.877 660.075 351.877C574.757 351.877 505.594 421.074 505.594 506.433C505.594 591.791 574.757 660.988 660.075 660.988Z" fill="black" stroke="white" stroke-width="0.5" stroke-miterlimit="10"/>
<path d="M660.074 631.065C728.874 631.065 784.648 575.265 784.648 506.432C784.648 437.599 728.874 381.799 660.074 381.799C591.274 381.799 535.501 437.599 535.501 506.432C535.501 575.265 591.274 631.065 660.074 631.065Z" fill="black" stroke="white" stroke-width="0.5" stroke-miterlimit="10"/>
<path d="M969.037 660.988C1054.35 660.988 1123.52 591.791 1123.52 506.433C1123.52 421.074 1054.35 351.877 969.037 351.877C883.719 351.877 814.556 421.074 814.556 506.433C814.556 591.791 883.719 660.988 969.037 660.988Z" fill="black" stroke="white" stroke-width="0.5" stroke-miterlimit="10"/>
<path d="M969.037 631.065C1037.84 631.065 1093.61 575.265 1093.61 506.432C1093.61 437.599 1037.84 381.799 969.037 381.799C900.237 381.799 844.463 437.599 844.463 506.432C844.463 575.265 900.237 631.065 969.037 631.065Z" fill="black" stroke="white" stroke-width="0.5" stroke-miterlimit="10"/>
</g>
</g>
</svg>
